<?xml version="1.0" encoding="UTF-8" standalone="no"?><!DOCTYPE svg PUBLIC "-//W3C//DTD SVG 1.1//EN" "http://www.w3.org/Graphics/SVG/1.1/DTD/svg11.dtd"><svg width="100%" height="100%" viewBox="0 0 75 75" version="1.1" xmlns="http://www.w3.org/2000/svg" xmlns:xlink="http://www.w3.org/1999/xlink" xml:space="preserve" xmlns:serif="http://www.serif.com/" style="fill-rule:evenodd;clip-rule:evenodd;stroke-linecap:round;stroke-linejoin:round;stroke-miterlimit:1.5;"><circle cx="37.398" cy="37.514" r="35.817" style="fill:#fff;"/><circle cx="37.398" cy="37.514" r="35.817" style="fill:#ff3961;fill-opacity:0.2;stroke:#ff3961;stroke-width:4.17px;"/><path d="M46.196,14.155c0.001,0.861 0.645,2.187 1.019,2.906c0.487,0.935 3.86,9.853 4.832,9.852m0.044,0.731c0.833,2.81 3.168,4.613 4.623,6.965c0.498,0.805 1.247,1.512 1.857,2.198c0.196,0.222 0.439,0.526 0.692,0.669c0.055,0.031 0.246,0.221 0.246,0.184m-0.272,0.79c-1.024,3.484 -2.321,7.05 -3.679,10.393c-0.291,0.716 -1.459,3.216 -1.409,3.858c0.019,0.239 -0.344,1.946 -0.345,1.185m-0.002,0.115c-0.631,0.238 -1.249,0.61 -1.902,0.833c-0.877,0.298 -5.257,0.756 -5.257,0.062m0.061,0.185c-1.891,-1.065 -5.118,-2.648 -6.357,-4.603c-0.372,-0.585 -1.879,-4.47 -2.527,-4.469m-0.439,-0.11c-4.404,-2.48 -10.048,0.28 -14.441,1.526c-1.521,0.431 -3.021,1.03 -4.526,1.517c-0.492,0.16 -0.985,0.338 -1.467,0.536c-0.211,0.086 -0.605,0.583 -0.606,0.33m29.665,-35.137c-0.819,1.857 -1.293,4.135 -1.832,6.128c-0.241,0.89 -0.527,1.776 -0.784,2.648c-0.047,0.162 -0.046,0.384 -0.046,0.32m0.144,0.253c-0.532,-0.598 -4.603,-3.796 -5.168,-3.796m-0,0c0.392,-0.222 1.958,-4.163 1.957,-4.803m0,0c-2.714,0.003 -3.762,-2.119 -6.604,0.026c-0.97,0.732 -1.647,2.032 -2.46,2.953c-0.276,0.313 -0.352,0.677 -0.494,1.083c-0.045,0.129 -0.092,0.49 -0.092,0.365m0.199,0.516c-0.27,-0.304 -0.785,-0.807 -1.161,-0.912c-0.977,-0.275 -5.281,3.354 -5.827,3.971c-0.55,0.623 -0.807,1.478 -1.382,2.128c-0.174,0.197 -0.239,0.458 -0.416,0.658c-0.06,0.069 -0.204,0.364 -0.204,0.3m0.151,-0.126c-0.923,0.696 -1.626,1.793 -2.678,2.385c-1.534,0.863 -3.356,0.826 -4.861,1.777c-0.811,0.513 -1.312,1.339 -1.875,2.156c-0.218,0.315 -0.304,0.621 -0.304,0.999c0.001,0.107 0.001,0.285 0.001,0.185m3.976,15.857c-0.166,0 -0.383,-0.224 -0.508,-0.329c-1.626,-1.374 0.032,-1.643 0.181,-2.632c0.182,-1.208 0.06,-2.602 -0.119,-3.805c-0.128,-0.864 -0.637,-1.446 -1.085,-2.118c-0.268,-0.402 -0.293,-0.962 -0.49,-1.406c-0.838,-1.885 -1.791,-3.441 -1.793,-5.517m36.422,23.686c0.492,-0.001 1.166,0.868 2.126,0.505c0.302,-0.114 1.738,-0.422 1.271,-0.157m-3.385,0.371c-0.156,0.001 0.201,1.324 0.247,1.427c0.274,0.617 0.534,1.202 0.86,1.754c0.22,0.371 0.721,0.544 1.105,0.76c0.096,0.054 0.555,-0.42 0.653,-0.532c1.304,-1.475 1.271,-1.586 1.269,-3.69m-4.818,-1.644c-0.218,0.001 -0.216,0.485 0.021,0.485m4.085,-0.26c-0,0.197 0.527,0.23 0.245,0.231" style="fill:none;stroke:#ff3961;stroke-width:1.29px;"/></svg>